<?xml version="1.0" encoding="UTF-8" standalone="no"?>
<!DOCTYPE svg PUBLIC "-//W3C//DTD SVG 20010904//EN"
              "http://www.w3.org/TR/2001/REC-SVG-20010904/DTD/svg10.dtd">

<svg xmlns="http://www.w3.org/2000/svg"
     width="145.034mm" height="120.904mm"
     viewBox="0 0 571 476">
  <path id="Selection #2"
        fill="none" stroke="black" stroke-width="1"
        d="M 67.00,92.00
           C 67.00,92.00 562.00,92.00 562.00,92.00
             562.00,92.00 562.00,93.00 562.00,93.00
             562.00,93.00 67.00,93.00 67.00,93.00
             67.00,93.00 67.00,92.00 67.00,92.00 Z
           M 67.00,138.99
           C 67.00,138.99 562.00,138.98 562.00,138.98
             562.00,138.98 562.00,140.03 562.00,140.03
             562.00,140.03 67.00,140.00 67.00,140.00
             67.00,140.00 67.00,138.99 67.00,138.99 Z
           M 67.00,186.02
           C 67.00,186.02 562.00,186.00 562.00,186.00
             562.00,186.00 562.00,187.00 562.00,187.00
             562.00,187.00 67.00,187.02 67.00,187.02
             67.00,187.02 67.00,186.02 67.00,186.02 Z
           M 67.00,234.00
           C 67.00,234.00 562.00,234.00 562.00,234.00
             562.00,234.00 562.00,235.00 562.00,235.00
             562.00,235.00 67.00,235.00 67.00,235.00
             67.00,235.00 67.00,234.00 67.00,234.00 Z
           M 67.00,281.00
           C 67.00,281.00 562.00,281.00 562.00,281.00
             562.00,281.00 562.00,282.00 562.00,282.00
             562.00,282.00 67.00,282.00 67.00,282.00
             67.00,282.00 67.00,281.00 67.00,281.00 Z
           M 67.00,328.00
           C 67.00,328.00 562.00,328.00 562.00,328.00
             562.00,328.00 562.00,329.00 562.00,329.00
             562.00,329.00 67.00,329.00 67.00,329.00
             67.00,329.00 67.00,328.00 67.00,328.00 Z
           M 67.00,375.00
           C 67.00,375.00 562.00,375.00 562.00,375.00
             562.00,375.00 562.00,376.00 562.00,376.00
             562.00,376.00 67.00,376.00 67.00,376.00
             67.00,376.00 67.00,375.00 67.00,375.00 Z" />
  <path id="Selection #1"
        fill="none" stroke="black" stroke-width="1"
        d="M 66.00,53.00
           C 66.00,53.00 563.00,53.00 563.00,53.00
             563.00,53.00 563.00,424.00 563.00,424.00
             563.00,424.00 554.00,424.00 554.00,424.00
             554.00,424.00 554.00,428.00 554.00,428.00
             554.00,428.00 553.00,428.00 553.00,428.00
             553.00,428.00 553.00,424.00 553.00,424.00
             553.00,424.00 476.00,424.00 476.00,424.00
             476.00,424.00 476.00,428.00 476.00,428.00
             476.00,428.00 475.00,428.00 475.00,428.00
             475.00,428.00 475.00,424.00 475.00,424.00
             475.00,424.00 398.00,424.00 398.00,424.00
             398.00,424.00 398.00,428.00 398.00,428.00
             398.00,428.00 397.00,428.00 397.00,428.00
             397.00,428.00 397.00,424.00 397.00,424.00
             397.00,424.00 320.00,424.00 320.00,424.00
             320.00,424.00 320.00,428.00 320.00,428.00
             320.00,428.00 319.00,428.00 319.00,428.00
             319.00,428.00 319.00,424.00 319.00,424.00
             319.00,424.00 242.00,424.00 242.00,424.00
             242.00,424.00 242.00,428.00 242.00,428.00
             242.00,428.00 241.00,428.00 241.00,428.00
             241.00,428.00 241.00,424.00 241.00,424.00
             241.00,424.00 164.00,424.00 164.00,424.00
             164.00,424.00 164.00,428.00 164.00,428.00
             164.00,428.00 163.00,428.00 163.00,428.00
             163.00,428.00 163.00,424.00 163.00,424.00
             163.00,424.00 86.00,424.00 86.00,424.00
             86.00,424.00 86.00,428.00 86.00,428.00
             86.00,428.00 85.00,428.00 85.00,428.00
             85.00,428.00 85.00,424.00 85.00,424.00
             85.00,424.00 62.00,424.00 62.00,424.00
             62.00,424.00 62.00,423.00 62.00,423.00
             62.00,423.00 66.00,423.00 66.00,423.00
             66.00,423.00 66.00,376.00 66.00,376.00
             66.00,376.00 62.00,376.00 62.00,376.00
             62.00,376.00 62.00,375.00 62.00,375.00
             62.00,375.00 66.00,375.00 66.00,375.00
             66.00,375.00 66.00,329.00 66.00,329.00
             66.00,329.00 62.00,329.00 62.00,329.00
             62.00,329.00 62.00,328.00 62.00,328.00
             62.00,328.00 66.00,328.00 66.00,328.00
             66.00,328.00 66.00,282.00 66.00,282.00
             66.00,282.00 62.00,282.00 62.00,282.00
             62.00,282.00 62.00,281.00 62.00,281.00
             62.00,281.00 66.00,281.00 66.00,281.00
             66.00,281.00 66.00,235.00 66.00,235.00
             66.00,235.00 62.00,235.00 62.00,235.00
             62.00,235.00 62.00,234.00 62.00,234.00
             62.00,234.00 66.00,234.00 66.00,234.00
             66.00,234.00 66.00,187.00 66.00,187.00
             66.00,187.00 62.00,187.00 62.00,187.00
             62.00,187.00 62.00,186.00 62.00,186.00
             62.00,186.00 66.00,186.00 66.00,186.00
             66.00,186.00 66.00,140.00 66.00,140.00
             66.00,140.00 62.00,140.00 62.00,140.00
             62.00,140.00 62.00,139.00 62.00,139.00
             62.00,139.00 66.00,139.00 66.00,139.00
             66.00,139.00 66.00,93.00 66.00,93.00
             66.00,93.00 62.00,93.00 62.00,93.00
             62.00,93.00 62.00,92.00 62.00,92.00
             62.00,92.00 66.00,92.00 66.00,92.00
             66.00,92.00 66.00,53.00 66.00,53.00 Z
           M 562.00,54.00
           C 562.00,54.00 67.00,54.00 67.00,54.00
             67.00,54.00 67.00,423.00 67.00,423.00
             67.00,423.00 562.00,423.00 562.00,423.00
             562.00,423.00 562.00,54.00 562.00,54.00 Z" />
  <path id="Selection"
        fill="none" stroke="black" stroke-width="1"
        d="M 342.00,71.00
           C 342.00,71.00 358.00,71.00 358.00,71.00
             358.00,71.00 358.00,423.00 358.00,423.00
             358.00,423.00 342.00,423.00 342.00,423.00
             342.00,423.00 342.00,71.00 342.00,71.00 Z
           M 360.00,101.00
           C 360.00,101.00 376.00,101.00 376.00,101.00
             376.00,101.00 376.00,423.00 376.00,423.00
             376.00,423.00 360.00,423.00 360.00,423.00
             360.00,423.00 360.00,101.00 360.00,101.00 Z
           M 324.00,127.00
           C 324.00,127.00 340.00,127.00 340.00,127.00
             340.00,127.00 340.00,423.00 340.00,423.00
             340.00,423.00 324.00,423.00 324.00,423.00
             324.00,423.00 324.00,127.00 324.00,127.00 Z
           M 379.00,139.00
           C 379.00,139.00 394.00,139.00 394.00,139.00
             394.00,139.00 394.00,423.00 394.00,423.00
             394.00,423.00 379.00,423.00 379.00,423.00
             379.00,423.00 379.00,139.00 379.00,139.00 Z
           M 306.00,168.00
           C 306.00,168.00 321.00,168.00 321.00,168.00
             321.00,168.00 321.00,423.00 321.00,423.00
             321.00,423.00 306.00,423.00 306.00,423.00
             306.00,423.00 306.00,168.00 306.00,168.00 Z
           M 415.00,179.00
           C 415.00,179.00 430.00,179.00 430.00,179.00
             430.00,179.00 430.00,423.00 430.00,423.00
             430.00,423.00 415.00,423.00 415.00,423.00
             415.00,423.00 415.00,179.00 415.00,179.00 Z
           M 433.00,184.00
           C 433.00,184.00 448.00,184.00 448.00,184.00
             448.00,184.00 448.00,423.00 448.00,423.00
             448.00,423.00 433.00,423.00 433.00,423.00
             433.00,423.00 433.00,184.00 433.00,184.00 Z
           M 397.00,191.00
           C 397.00,191.00 412.00,191.00 412.00,191.00
             412.00,191.00 412.00,423.00 412.00,423.00
             412.00,423.00 397.00,423.00 397.00,423.00
             397.00,423.00 397.00,191.00 397.00,191.00 Z
           M 451.00,238.00
           C 451.00,238.00 467.00,238.00 467.00,238.00
             467.00,238.00 467.00,423.00 467.00,423.00
             467.00,423.00 451.00,423.00 451.00,423.00
             451.00,423.00 451.00,238.00 451.00,238.00 Z
           M 288.00,279.00
           C 288.00,279.00 303.00,279.00 303.00,279.00
             303.00,279.00 303.00,423.00 303.00,423.00
             303.00,423.00 288.00,423.00 288.00,423.00
             288.00,423.00 288.00,279.00 288.00,279.00 Z
           M 469.00,283.00
           C 469.00,283.00 485.00,283.00 485.00,283.00
             485.00,283.00 485.00,423.00 485.00,423.00
             485.00,423.00 469.00,423.00 469.00,423.00
             469.00,423.00 469.00,283.00 469.00,283.00 Z
           M 487.00,298.00
           C 487.00,298.00 503.00,298.00 503.00,298.00
             503.00,298.00 503.00,423.00 503.00,423.00
             503.00,423.00 487.00,423.00 487.00,423.00
             487.00,423.00 487.00,298.00 487.00,298.00 Z
           M 270.00,338.00
           C 270.00,338.00 285.00,338.00 285.00,338.00
             285.00,338.00 285.00,423.00 285.00,423.00
             285.00,423.00 270.00,423.00 270.00,423.00
             270.00,423.00 270.00,338.00 270.00,338.00 Z
           M 506.00,338.00
           C 506.00,338.00 521.00,338.00 521.00,338.00
             521.00,338.00 521.00,423.00 521.00,423.00
             521.00,423.00 506.00,423.00 506.00,423.00
             506.00,423.00 506.00,338.00 506.00,338.00 Z
           M 215.00,357.00
           C 215.00,357.00 231.00,357.00 231.00,357.00
             231.00,357.00 231.00,423.00 231.00,423.00
             231.00,423.00 215.00,423.00 215.00,423.00
             215.00,423.00 215.00,357.00 215.00,357.00 Z
           M 179.00,364.00
           C 179.00,364.00 194.00,364.00 194.00,364.00
             194.00,364.00 194.00,423.00 194.00,423.00
             194.00,423.00 179.00,423.00 179.00,423.00
             179.00,423.00 179.00,364.00 179.00,364.00 Z
           M 161.00,368.00
           C 161.00,368.00 176.00,368.00 176.00,368.00
             176.00,368.00 176.00,423.00 176.00,423.00
             176.00,423.00 161.00,423.00 161.00,423.00
             161.00,423.00 161.00,368.00 161.00,368.00 Z
           M 524.00,371.00
           C 524.00,371.00 539.00,371.00 539.00,371.00
             539.00,371.00 539.00,423.00 539.00,423.00
             539.00,423.00 524.00,423.00 524.00,423.00
             524.00,423.00 524.00,371.00 524.00,371.00 Z
           M 233.00,378.00
           C 233.00,378.00 249.00,378.00 249.00,378.00
             249.00,378.00 249.00,423.00 249.00,423.00
             249.00,423.00 233.00,423.00 233.00,423.00
             233.00,423.00 233.00,378.00 233.00,378.00 Z
           M 143.00,385.00
           C 143.00,385.00 158.00,385.00 158.00,385.00
             158.00,385.00 158.00,423.00 158.00,423.00
             158.00,423.00 143.00,423.00 143.00,423.00
             143.00,423.00 143.00,385.00 143.00,385.00 Z
           M 197.00,385.00
           C 197.00,385.00 212.00,385.00 212.00,385.00
             212.00,385.00 212.00,423.00 212.00,423.00
             212.00,423.00 197.00,423.00 197.00,423.00
             197.00,423.00 197.00,385.00 197.00,385.00 Z
           M 252.00,392.00
           C 252.00,392.00 267.00,392.00 267.00,392.00
             267.00,392.00 267.00,423.00 267.00,423.00
             267.00,423.00 252.00,423.00 252.00,423.00
             252.00,423.00 252.00,392.00 252.00,392.00 Z
           M 124.00,397.00
           C 124.00,397.00 140.00,397.00 140.00,397.00
             140.00,397.00 140.00,423.00 140.00,423.00
             140.00,423.00 124.00,423.00 124.00,423.00
             124.00,423.00 124.00,397.00 124.00,397.00 Z
           M 106.00,416.00
           C 106.00,416.00 122.00,416.00 122.00,416.00
             122.00,416.00 122.00,423.00 122.00,423.00
             122.00,423.00 106.00,423.00 106.00,423.00
             106.00,423.00 106.00,416.00 106.00,416.00 Z
           M 88.00,420.00
           C 88.00,420.00 104.00,420.00 104.00,420.00
             104.00,420.00 104.00,423.00 104.00,423.00
             104.00,423.00 88.00,423.00 88.00,423.00
             88.00,423.00 88.00,420.00 88.00,420.00 Z" />
</svg>
