<svg width="1933" height="1646" xmlns="http://www.w3.org/2000/svg" xmlns:xlink="http://www.w3.org/1999/xlink" xml:space="preserve" overflow="hidden"><g transform="translate(-343 -1485)"><text fill="#FFFFFF" font-family="Arial,Arial_MSFontService,sans-serif" font-weight="400" font-size="73" transform="matrix(1 0 0 1 767.502 1576)">A Histogram of Cardiff Elevation Angles</text><text fill="#FFFFFF" font-family="Arial,Arial_MSFontService,sans-serif" font-weight="400" font-size="73" transform="matrix(1 0 0 1 1135.75 1670)">Margin 24 Hours</text><path d="M1497.47 1774C1497.47 1774 1550.22 1774 1550.22 1774 1550.22 1774 1550.22 2936 1550.22 2936 1550.22 2936 1497.47 2936 1497.47 2936 1497.47 2936 1497.47 1774 1497.47 1774ZM1556.82 1873.03C1556.82 1873.03 1609.57 1873.03 1609.57 1873.03 1609.57 1873.03 1609.57 2936 1609.57 2936 1609.57 2936 1556.82 2936 1556.82 2936 1556.82 2936 1556.82 1873.03 1556.82 1873.03ZM1438.12 1958.86C1438.12 1958.86 1490.87 1958.86 1490.87 1958.86 1490.87 1958.86 1490.87 2936 1490.87 2936 1490.87 2936 1438.12 2936 1438.12 2936 1438.12 2936 1438.12 1958.86 1438.12 1958.86ZM1619.46 1998.48C1619.46 1998.48 1668.92 1998.48 1668.92 1998.48 1668.92 1998.48 1668.92 2936 1668.92 2936 1668.92 2936 1619.46 2936 1619.46 2936 1619.46 2936 1619.46 1998.48 1619.46 1998.48ZM1378.77 2094.21C1378.77 2094.21 1428.23 2094.21 1428.23 2094.21 1428.23 2094.21 1428.23 2936 1428.23 2936 1428.23 2936 1378.77 2936 1378.77 2936 1378.77 2936 1378.77 2094.21 1378.77 2094.21ZM1738.16 2130.52C1738.16 2130.52 1787.61 2130.52 1787.61 2130.52 1787.61 2130.52 1787.61 2936 1787.61 2936 1787.61 2936 1738.16 2936 1738.16 2936 1738.16 2936 1738.16 2130.52 1738.16 2130.52ZM1797.51 2147.03C1797.51 2147.03 1846.96 2147.03 1846.96 2147.03 1846.96 2147.03 1846.96 2936 1846.96 2936 1846.96 2936 1797.51 2936 1797.51 2936 1797.51 2936 1797.51 2147.03 1797.51 2147.03ZM1678.81 2170.14C1678.81 2170.14 1728.27 2170.14 1728.27 2170.14 1728.27 2170.14 1728.27 2936 1728.27 2936 1728.27 2936 1678.81 2936 1678.81 2936 1678.81 2936 1678.81 2170.14 1678.81 2170.14ZM1856.85 2325.29C1856.85 2325.29 1909.61 2325.29 1909.61 2325.29 1909.61 2325.29 1909.61 2936 1909.61 2936 1909.61 2936 1856.85 2936 1856.85 2936 1856.85 2936 1856.85 2325.29 1856.85 2325.29ZM1319.42 2460.64C1319.42 2460.64 1368.88 2460.64 1368.88 2460.64 1368.88 2460.64 1368.88 2936 1368.88 2936 1368.88 2936 1319.42 2936 1319.42 2936 1319.42 2936 1319.42 2460.64 1319.42 2460.64ZM1916.2 2473.84C1916.2 2473.84 1968.96 2473.84 1968.96 2473.84 1968.96 2473.84 1968.96 2936 1968.96 2936 1968.96 2936 1916.2 2936 1916.2 2936 1916.2 2936 1916.2 2473.84 1916.2 2473.84ZM1975.55 2523.36C1975.55 2523.36 2028.3 2523.36 2028.3 2523.36 2028.3 2523.36 2028.3 2936 2028.3 2936 2028.3 2936 1975.55 2936 1975.55 2936 1975.55 2936 1975.55 2523.36 1975.55 2523.36ZM1260.08 2655.4C1260.08 2655.4 1309.53 2655.4 1309.53 2655.4 1309.53 2655.4 1309.53 2936 1309.53 2936 1309.53 2936 1260.08 2936 1260.08 2936 1260.08 2936 1260.08 2655.4 1260.08 2655.4ZM2038.2 2655.4C2038.2 2655.4 2087.65 2655.4 2087.65 2655.4 2087.65 2655.4 2087.65 2936 2087.65 2936 2087.65 2936 2038.2 2936 2038.2 2936 2038.2 2936 2038.2 2655.4 2038.2 2655.4ZM1078.73 2718.13C1078.73 2718.13 1131.49 2718.13 1131.49 2718.13 1131.49 2718.13 1131.49 2936 1131.49 2936 1131.49 2936 1078.73 2936 1078.73 2936 1078.73 2936 1078.73 2718.13 1078.73 2718.13ZM960.038 2741.23C960.038 2741.23 1009.49 2741.23 1009.49 2741.23 1009.49 2741.23 1009.49 2936 1009.49 2936 1009.49 2936 960.038 2936 960.038 2936 960.038 2936 960.038 2741.23 960.038 2741.23ZM900.69 2754.44C900.69 2754.44 950.146 2754.44 950.146 2754.44 950.146 2754.44 950.146 2936 950.146 2936 950.146 2936 900.69 2936 900.69 2936 900.69 2936 900.69 2754.44 900.69 2754.44ZM2097.54 2764.34C2097.54 2764.34 2147 2764.34 2147 2764.34 2147 2764.34 2147 2936 2147 2936 2147 2936 2097.54 2936 2097.54 2936 2097.54 2936 2097.54 2764.34 2097.54 2764.34ZM1138.08 2787.45C1138.08 2787.45 1190.84 2787.45 1190.84 2787.45 1190.84 2787.45 1190.84 2936 1190.84 2936 1190.84 2936 1138.08 2936 1138.08 2936 1138.08 2936 1138.08 2787.45 1138.08 2787.45ZM841.341 2810.56C841.341 2810.56 890.798 2810.56 890.798 2810.56 890.798 2810.56 890.798 2936 890.798 2936 890.798 2936 841.341 2936 841.341 2936 841.341 2936 841.341 2810.56 841.341 2810.56ZM1019.39 2810.56C1019.39 2810.56 1068.84 2810.56 1068.84 2810.56 1068.84 2810.56 1068.84 2936 1068.84 2936 1068.84 2936 1019.39 2936 1019.39 2936 1019.39 2936 1019.39 2810.56 1019.39 2810.56ZM1200.73 2833.67C1200.73 2833.67 1250.18 2833.67 1250.18 2833.67 1250.18 2833.67 1250.18 2936 1250.18 2936 1250.18 2936 1200.73 2936 1200.73 2936 1200.73 2936 1200.73 2833.67 1200.73 2833.67ZM778.696 2850.17C778.696 2850.17 831.45 2850.17 831.45 2850.17 831.45 2850.17 831.45 2936 831.45 2936 831.45 2936 778.696 2936 778.696 2936 778.696 2936 778.696 2850.17 778.696 2850.17ZM719.348 2912.89C719.348 2912.89 772.102 2912.89 772.102 2912.89 772.102 2912.89 772.102 2936 772.102 2936 772.102 2936 719.348 2936 719.348 2936 719.348 2936 719.348 2912.89 719.348 2912.89ZM660 2926.1C660 2926.1 712.754 2926.1 712.754 2926.1 712.754 2926.1 712.754 2936 712.754 2936 712.754 2936 660 2936 660 2936 660 2936 660 2926.1 660 2926.1Z" fill="#B0B03C" fill-rule="evenodd"/><path d="M587.697 1715.5C587.697 1715.5 2227.5 1715.5 2227.5 1715.5 2227.5 1715.5 2227.5 2939.31 2227.5 2939.31 2227.5 2939.31 2197.81 2939.31 2197.81 2939.31 2197.81 2939.31 2197.81 2952.5 2197.81 2952.5 2197.81 2952.5 2194.51 2952.5 2194.51 2952.5 2194.51 2952.5 2194.51 2939.31 2194.51 2939.31 2194.51 2939.31 1940.45 2939.31 1940.45 2939.31 1940.45 2939.31 1940.45 2952.5 1940.45 2952.5 1940.45 2952.5 1937.15 2952.5 1937.15 2952.5 1937.15 2952.5 1937.15 2939.31 1937.15 2939.31 1937.15 2939.31 1683.1 2939.31 1683.1 2939.31 1683.1 2939.31 1683.1 2952.5 1683.1 2952.5 1683.1 2952.5 1679.8 2952.5 1679.8 2952.5 1679.8 2952.5 1679.8 2939.31 1679.8 2939.31 1679.8 2939.31 1425.75 2939.31 1425.75 2939.31 1425.75 2939.31 1425.75 2952.5 1425.75 2952.5 1425.75 2952.5 1422.45 2952.5 1422.45 2952.5 1422.45 2952.5 1422.45 2939.31 1422.45 2939.31 1422.45 2939.31 1168.39 2939.31 1168.39 2939.31 1168.39 2939.31 1168.39 2952.5 1168.39 2952.5 1168.39 2952.5 1165.09 2952.5 1165.09 2952.5 1165.09 2952.5 1165.09 2939.31 1165.09 2939.31 1165.09 2939.31 911.039 2939.31 911.039 2939.31 911.039 2939.31 911.039 2952.5 911.039 2952.5 911.039 2952.5 907.739 2952.5 907.739 2952.5 907.739 2952.5 907.739 2939.31 907.739 2939.31 907.739 2939.31 653.686 2939.31 653.686 2939.31 653.686 2939.31 653.686 2952.5 653.686 2952.5 653.686 2952.5 650.386 2952.5 650.386 2952.5 650.386 2952.5 650.386 2939.31 650.386 2939.31 650.386 2939.31 574.5 2939.31 574.5 2939.31 574.5 2939.31 574.5 2936.01 574.5 2936.01 574.5 2936.01 587.697 2936.01 587.697 2936.01 587.697 2936.01 587.697 2780.97 587.697 2780.97 587.697 2780.97 574.5 2780.97 574.5 2780.97 574.5 2780.97 574.5 2777.67 574.5 2777.67 574.5 2777.67 587.697 2777.67 587.697 2777.67 587.697 2777.67 587.697 2625.93 587.697 2625.93 587.697 2625.93 574.5 2625.93 574.5 2625.93 574.5 2625.93 574.5 2622.63 574.5 2622.63 574.5 2622.63 587.697 2622.63 587.697 2622.63 587.697 2622.63 587.697 2470.89 587.697 2470.89 587.697 2470.89 574.5 2470.89 574.5 2470.89 574.5 2470.89 574.5 2467.6 574.5 2467.6 574.5 2467.6 587.697 2467.6 587.697 2467.6 587.697 2467.6 587.697 2315.86 587.697 2315.86 587.697 2315.86 574.5 2315.86 574.5 2315.86 574.5 2315.86 574.5 2312.56 574.5 2312.56 574.5 2312.56 587.697 2312.56 587.697 2312.56 587.697 2312.56 587.697 2157.52 587.697 2157.52 587.697 2157.52 574.5 2157.52 574.5 2157.52 574.5 2157.52 574.5 2154.22 574.5 2154.22 574.5 2154.22 587.697 2154.22 587.697 2154.22 587.697 2154.22 587.697 2002.48 587.697 2002.48 587.697 2002.48 574.5 2002.48 574.5 2002.48 574.5 2002.48 574.5 1999.19 574.5 1999.19 574.5 1999.19 587.697 1999.19 587.697 1999.19 587.697 1999.19 587.697 1847.45 587.697 1847.45 587.697 1847.45 574.5 1847.45 574.5 1847.45 574.5 1847.45 574.5 1844.15 574.5 1844.15 574.5 1844.15 587.697 1844.15 587.697 1844.15 587.697 1844.15 587.697 1715.5 587.697 1715.5ZM2224.2 1718.8C2224.2 1718.8 590.997 1718.8 590.997 1718.8 590.997 1718.8 590.997 2936.01 590.997 2936.01 590.997 2936.01 2224.2 2936.01 2224.2 2936.01 2224.2 2936.01 2224.2 1718.8 2224.2 1718.8Z" stroke="#FFFFFF" stroke-width="3.29892" stroke-miterlimit="8" fill="none" fill-rule="evenodd"/><path d="M590.5 1844.5C590.5 1844.5 2223.5 1844.5 2223.5 1844.5 2223.5 1844.5 2223.5 1847.8 2223.5 1847.8 2223.5 1847.8 590.5 1847.8 590.5 1847.8 590.5 1847.8 590.5 1844.5 590.5 1844.5ZM590.5 1999.53C590.5 1999.53 2223.5 1999.5 2223.5 1999.5 2223.5 1999.5 2223.5 2002.97 2223.5 2002.97 2223.5 2002.97 590.5 2002.87 590.5 2002.87 590.5 2002.87 590.5 1999.53 590.5 1999.53ZM590.5 2154.7C590.5 2154.7 2223.5 2154.63 2223.5 2154.63 2223.5 2154.63 2223.5 2157.93 2223.5 2157.93 2223.5 2157.93 590.5 2158 590.5 2158 590.5 2158 590.5 2154.7 590.5 2154.7ZM590.5 2313C590.5 2313 2223.5 2313 2223.5 2313 2223.5 2313 2223.5 2316.3 2223.5 2316.3 2223.5 2316.3 590.5 2316.3 590.5 2316.3 590.5 2316.3 590.5 2313 590.5 2313ZM590.5 2468.07C590.5 2468.07 2223.5 2468.07 2223.5 2468.07 2223.5 2468.07 2223.5 2471.37 2223.5 2471.37 2223.5 2471.37 590.5 2471.37 590.5 2471.37 590.5 2471.37 590.5 2468.07 590.5 2468.07ZM590.5 2623.13C590.5 2623.13 2223.5 2623.13 2223.5 2623.13 2223.5 2623.13 2223.5 2626.43 2223.5 2626.43 2223.5 2626.43 590.5 2626.43 590.5 2626.43 590.5 2626.43 590.5 2623.13 590.5 2623.13ZM590.5 2778.2C590.5 2778.2 2223.5 2778.2 2223.5 2778.2 2223.5 2778.2 2223.5 2781.5 2223.5 2781.5 2223.5 2781.5 590.5 2781.5 590.5 2781.5 590.5 2781.5 590.5 2778.2 590.5 2778.2Z" stroke="#A6A6A6" stroke-width="3.29892" stroke-miterlimit="8" fill="none" fill-rule="evenodd"/><text fill="#FFFFFF" font-family="Arial,Arial_MSFontService,sans-serif" font-weight="400" font-size="50" transform="matrix(1 0 0 1 484.749 2643)">40</text><text fill="#FFFFFF" font-family="Arial,Arial_MSFontService,sans-serif" font-weight="400" font-size="50" transform="matrix(1 0 0 1 483.116 2800)">20</text><text fill="#FFFFFF" font-family="Arial,Arial_MSFontService,sans-serif" font-weight="400" font-size="50" transform="matrix(1 0 0 1 481.482 2489)">60</text><text fill="#FFFFFF" font-family="Arial,Arial_MSFontService,sans-serif" font-weight="400" font-size="50" transform="matrix(1 0 0 1 481.482 2332)">80</text><text fill="#FFFFFF" font-family="Arial,Arial_MSFontService,sans-serif" font-weight="400" font-size="50" transform="matrix(1 0 0 1 453.432 2174)">100</text><text fill="#FFFFFF" font-family="Arial,Arial_MSFontService,sans-serif" font-weight="400" font-size="50" transform="matrix(1 0 0 1 450.165 2019)">120</text><text fill="#FFFFFF" font-family="Arial,Arial_MSFontService,sans-serif" font-weight="400" font-size="50" transform="matrix(1 0 0 1 453.432 1865)">140</text><text fill="#FFFFFF" font-family="Arial,Arial_MSFontService,sans-serif" font-weight="400" font-size="50" transform="matrix(1 0 0 1 625.706 3022)">30</text><text fill="#FFFFFF" font-family="Arial,Arial_MSFontService,sans-serif" font-weight="400" font-size="50" transform="matrix(1 0 0 1 882.177 3022)">40</text><text fill="#FFFFFF" font-family="Arial,Arial_MSFontService,sans-serif" font-weight="400" font-size="50" transform="matrix(1 0 0 1 1143.55 3022)">50</text><text fill="#FFFFFF" font-family="Arial,Arial_MSFontService,sans-serif" font-weight="400" font-size="50" transform="matrix(1 0 0 1 1393.48 3022)">60</text><text fill="#FFFFFF" font-family="Arial,Arial_MSFontService,sans-serif" font-weight="400" font-size="50" transform="matrix(1 0 0 1 1654.85 3018)">70</text><text fill="#FFFFFF" font-family="Arial,Arial_MSFontService,sans-serif" font-weight="400" font-size="50" transform="matrix(1 0 0 1 1916.23 3022)">80</text><text fill="#FFFFFF" font-family="Arial,Arial_MSFontService,sans-serif" font-weight="400" font-size="50" transform="matrix(1 0 0 1 2166.17 3022)">90</text><text fill="#FFFFFF" font-family="Arial,Arial_MSFontService,sans-serif" font-weight="400" font-size="50" transform="matrix(1 0 0 1 509.532 2956)">0</text><text fill="#FFFFFF" font-family="Arial,Arial_MSFontService,sans-serif" font-weight="400" font-size="50" transform="matrix(6.12323e-17 -1 1 6.12323e-17 425.244 2540)"># of Occurrence</text><text fill="#FFFFFF" font-family="Arial,Arial_MSFontService,sans-serif" font-weight="400" font-size="50" transform="matrix(1 0 0 1 1246.43 3090)">Angle (degrees)</text></g></svg>