<svg width="1897" height="1675" xmlns="http://www.w3.org/2000/svg" xmlns:xlink="http://www.w3.org/1999/xlink" xml:space="preserve" overflow="hidden"><g transform="translate(3 3)"><path d="M228 1429 1831 1429 1831 164 228 164Z" stroke="#FFFFFF" stroke-width="2.45948" stroke-linecap="square" stroke-miterlimit="8" fill="none" fill-rule="evenodd"/><path d="M428 1429 428 1413" stroke="#FFFFFF" stroke-width="2.45948" stroke-linecap="square" stroke-linejoin="round" stroke-miterlimit="10" fill="none" fill-rule="evenodd"/><path d="M628 1429 628 1413" stroke="#FFFFFF" stroke-width="2.45948" stroke-linecap="square" stroke-linejoin="round" stroke-miterlimit="10" fill="none" fill-rule="evenodd"/><path d="M829 1429 829 1413" stroke="#FFFFFF" stroke-width="2.45948" stroke-linecap="square" stroke-linejoin="round" stroke-miterlimit="10" fill="none" fill-rule="evenodd"/><path d="M1029 1429 1029 1413" stroke="#FFFFFF" stroke-width="2.45948" stroke-linecap="square" stroke-linejoin="round" stroke-miterlimit="10" fill="none" fill-rule="evenodd"/><path d="M1230 1429 1230 1413" stroke="#FFFFFF" stroke-width="2.45948" stroke-linecap="square" stroke-linejoin="round" stroke-miterlimit="10" fill="none" fill-rule="evenodd"/><path d="M1430 1429 1430 1413" stroke="#FFFFFF" stroke-width="2.45948" stroke-linecap="square" stroke-linejoin="round" stroke-miterlimit="10" fill="none" fill-rule="evenodd"/><path d="M1630 1429 1630 1413" stroke="#FFFFFF" stroke-width="2.45948" stroke-linecap="square" stroke-linejoin="round" stroke-miterlimit="10" fill="none" fill-rule="evenodd"/><path d="M428 164 428 180" stroke="#FFFFFF" stroke-width="2.45948" stroke-linecap="square" stroke-linejoin="round" stroke-miterlimit="10" fill="none" fill-rule="evenodd"/><path d="M628 164 628 180" stroke="#FFFFFF" stroke-width="2.45948" stroke-linecap="square" stroke-linejoin="round" stroke-miterlimit="10" fill="none" fill-rule="evenodd"/><path d="M829 164 829 180" stroke="#FFFFFF" stroke-width="2.45948" stroke-linecap="square" stroke-linejoin="round" stroke-miterlimit="10" fill="none" fill-rule="evenodd"/><path d="M1029 164 1029 180" stroke="#FFFFFF" stroke-width="2.45948" stroke-linecap="square" stroke-linejoin="round" stroke-miterlimit="10" fill="none" fill-rule="evenodd"/><path d="M1230 164 1230 180" stroke="#FFFFFF" stroke-width="2.45948" stroke-linecap="square" stroke-linejoin="round" stroke-miterlimit="10" fill="none" fill-rule="evenodd"/><path d="M1430 164 1430 180" stroke="#FFFFFF" stroke-width="2.45948" stroke-linecap="square" stroke-linejoin="round" stroke-miterlimit="10" fill="none" fill-rule="evenodd"/><path d="M1630 164 1630 180" stroke="#FFFFFF" stroke-width="2.45948" stroke-linecap="square" stroke-linejoin="round" stroke-miterlimit="10" fill="none" fill-rule="evenodd"/><text fill="#FFFFFF" font-family="Arial,Arial_MSFontService,sans-serif" font-weight="400" font-size="69" transform="matrix(1 0 0 1 205.601 1523)">-</text><text fill="#FFFFFF" font-family="Arial,Arial_MSFontService,sans-serif" font-weight="400" font-size="69" transform="matrix(1 0 0 1 228.495 1523)">2</text><text fill="#FFFFFF" font-family="Arial,Arial_MSFontService,sans-serif" font-weight="400" font-size="69" transform="matrix(1 0 0 1 385.039 1523)">-</text><text fill="#FFFFFF" font-family="Arial,Arial_MSFontService,sans-serif" font-weight="400" font-size="69" transform="matrix(1 0 0 1 407.933 1523)">1.5</text><text fill="#FFFFFF" font-family="Arial,Arial_MSFontService,sans-serif" font-weight="400" font-size="69" transform="matrix(1 0 0 1 606.335 1523)">-</text><text fill="#FFFFFF" font-family="Arial,Arial_MSFontService,sans-serif" font-weight="400" font-size="69" transform="matrix(1 0 0 1 629.229 1523)">1</text><text fill="#FFFFFF" font-family="Arial,Arial_MSFontService,sans-serif" font-weight="400" font-size="69" transform="matrix(1 0 0 1 785.773 1523)">-</text><text fill="#FFFFFF" font-family="Arial,Arial_MSFontService,sans-serif" font-weight="400" font-size="69" transform="matrix(1 0 0 1 808.667 1523)">0.5</text><text fill="#FFFFFF" font-family="Arial,Arial_MSFontService,sans-serif" font-weight="400" font-size="69" transform="matrix(1 0 0 1 1014.46 1523)">0</text><text fill="#FFFFFF" font-family="Arial,Arial_MSFontService,sans-serif" font-weight="400" font-size="69" transform="matrix(1 0 0 1 1195.12 1523)">0.5</text><text fill="#FFFFFF" font-family="Arial,Arial_MSFontService,sans-serif" font-weight="400" font-size="69" transform="matrix(1 0 0 1 1415.19 1523)">1</text><text fill="#FFFFFF" font-family="Arial,Arial_MSFontService,sans-serif" font-weight="400" font-size="69" transform="matrix(1 0 0 1 1595.86 1523)">1.5</text><text fill="#FFFFFF" font-family="Arial,Arial_MSFontService,sans-serif" font-weight="400" font-size="69" transform="matrix(1 0 0 1 1815.92 1523)">2</text><text fill="#FFFFFF" font-family="Arial,Arial_MSFontService,sans-serif" font-weight="400" font-size="76" transform="matrix(1 0 0 1 1015.69 1599)">x</text><path d="M228 1218 244 1218" stroke="#FFFFFF" stroke-width="2.45948" stroke-linecap="square" stroke-linejoin="round" stroke-miterlimit="10" fill="none" fill-rule="evenodd"/><path d="M228 1007 244 1007" stroke="#FFFFFF" stroke-width="2.45948" stroke-linecap="square" stroke-linejoin="round" stroke-miterlimit="10" fill="none" fill-rule="evenodd"/><path d="M228 796 244 796" stroke="#FFFFFF" stroke-width="2.45948" stroke-linecap="square" stroke-linejoin="round" stroke-miterlimit="10" fill="none" fill-rule="evenodd"/><path d="M228 585 244 585" stroke="#FFFFFF" stroke-width="2.45948" stroke-linecap="square" stroke-linejoin="round" stroke-miterlimit="10" fill="none" fill-rule="evenodd"/><path d="M228 375 244 375" stroke="#FFFFFF" stroke-width="2.45948" stroke-linecap="square" stroke-linejoin="round" stroke-miterlimit="10" fill="none" fill-rule="evenodd"/><path d="M1831 1218 1815 1218" stroke="#FFFFFF" stroke-width="2.45948" stroke-linecap="square" stroke-linejoin="round" stroke-miterlimit="10" fill="none" fill-rule="evenodd"/><path d="M1831 1007 1815 1007" stroke="#FFFFFF" stroke-width="2.45948" stroke-linecap="square" stroke-linejoin="round" stroke-miterlimit="10" fill="none" fill-rule="evenodd"/><path d="M1831 796 1815 796" stroke="#FFFFFF" stroke-width="2.45948" stroke-linecap="square" stroke-linejoin="round" stroke-miterlimit="10" fill="none" fill-rule="evenodd"/><path d="M1831 585 1815 585" stroke="#FFFFFF" stroke-width="2.45948" stroke-linecap="square" stroke-linejoin="round" stroke-miterlimit="10" fill="none" fill-rule="evenodd"/><path d="M1831 375 1815 375" stroke="#FFFFFF" stroke-width="2.45948" stroke-linecap="square" stroke-linejoin="round" stroke-miterlimit="10" fill="none" fill-rule="evenodd"/><text fill="#FFFFFF" font-family="Arial,Arial_MSFontService,sans-serif" font-weight="400" font-size="69" transform="matrix(1 0 0 1 76.2934 1471)">-</text><text fill="#FFFFFF" font-family="Arial,Arial_MSFontService,sans-serif" font-weight="400" font-size="69" transform="matrix(1 0 0 1 99.1871 1471)">1.5</text><text fill="#FFFFFF" font-family="Arial,Arial_MSFontService,sans-serif" font-weight="400" font-size="69" transform="matrix(1 0 0 1 118.152 1261)">-</text><text fill="#FFFFFF" font-family="Arial,Arial_MSFontService,sans-serif" font-weight="400" font-size="69" transform="matrix(1 0 0 1 141.046 1261)">1</text><text fill="#FFFFFF" font-family="Arial,Arial_MSFontService,sans-serif" font-weight="400" font-size="69" transform="matrix(1 0 0 1 76.2934 1050)">-</text><text fill="#FFFFFF" font-family="Arial,Arial_MSFontService,sans-serif" font-weight="400" font-size="69" transform="matrix(1 0 0 1 99.1871 1050)">0.5</text><text fill="#FFFFFF" font-family="Arial,Arial_MSFontService,sans-serif" font-weight="400" font-size="69" transform="matrix(1 0 0 1 132.926 839)">0</text><text fill="#FFFFFF" font-family="Arial,Arial_MSFontService,sans-serif" font-weight="400" font-size="69" transform="matrix(1 0 0 1 93.5296 628)">0.5</text><text fill="#FFFFFF" font-family="Arial,Arial_MSFontService,sans-serif" font-weight="400" font-size="69" transform="matrix(1 0 0 1 132.926 417)">1</text><text fill="#FFFFFF" font-family="Arial,Arial_MSFontService,sans-serif" font-weight="400" font-size="69" transform="matrix(1 0 0 1 93.5296 206)">1.5</text><text fill="#FFFFFF" font-family="Arial,Arial_MSFontService,sans-serif" font-weight="400" font-size="76" transform="matrix(-1.83697e-16 -1 1 -1.83697e-16 90.4979 850)">y</text><text fill="#FFFFFF" font-family="Arial,Arial_MSFontService,sans-serif" font-weight="700" font-size="76" transform="matrix(1 0 0 1 747.862 90)">Orbit Trajectory</text><path d="M1034.16 796.111C1034.16 798.873 1031.92 801.112 1029.16 801.112 1026.4 801.112 1024.16 798.873 1024.16 796.111 1024.16 793.35 1026.4 791.111 1029.16 791.111 1031.92 791.111 1034.16 793.35 1034.16 796.111Z" fill="#0000FF" fill-rule="evenodd"/><path d="M1430 796.437 1420.05 691.799 1391.02 592.24 1345.24 502.074 1285.93 424.418 1216.67 361.057 1140.92 312.607 1061.73 278.842 981.615 259.006 902.598 252 826.255 256.643 753.792 271.625 686.113 295.807 623.89 327.968 567.656 367.092 517.795 412.119 474.547 462.149 438.155 516.304 408.735 573.783 386.411 633.806 371.26 695.649 363.322 758.596 362.603 821.955 369.135 885.037 382.842 947.149 403.766 1007.59 431.782 1065.62 466.812 1120.49 508.698 1171.4 557.275 1217.48 612.266 1257.82 673.327 1291.45 739.956 1317.28 811.521 1334.21 887.161 1341 965.742 1336.4 1045.76 1319.22 1125.31 1288.33 1201.96 1242.88 1272.76 1182.47 1334.35 1107.59 1383.13 1019.76 1415.75 921.79 1429.68 817.794 1423.73 712.749 1398.43 611.784 1355.81 519.425 1298.96 439.045 1231.43 372.704 1156.75 321.216 1078.04 284.497 997.935 261.918 918.559 252.38 841.564 254.743 768.224 267.7 699.498 290.111 636.122 320.709 578.64 358.481 527.415 402.369 482.805 451.438 444.97 504.808 414.107 561.658 390.299 621.214 373.664 682.729 364.207 745.496 362 808.82 367.012 872.009 379.237 934.369 398.675 995.208 425.169 1053.8 458.756 1109.39 499.199 1161.18 546.373 1208.35 600.043 1249.97 659.838 1285.08 725.323 1312.68 795.895 1331.59 870.737 1340.62 948.784 1338.55 1028.63 1324.16 1108.45 1296.31 1185.93 1254.02 1258.25 1196.82 1322.11 1124.99 1373.94 1039.76 1410.3 943.683 1428.42 840.604 1426.79 735.355 1405.56 633.099 1366.46 538.543 1312.41 455.35 1246.91 385.833 1173.51 331.091 1095.43 291.208 1015.43 265.59 935.741 253.351 858.109 253.182 783.879 263.944 714.078 284.371 649.473 313.282 590.663 349.576" stroke="#FF0000" stroke-width="2.45948" stroke-linejoin="round" stroke-miterlimit="10" fill="none" fill-rule="evenodd"/><path d="M628 796.563 637.952 901.202 666.975 1000.76 712.763 1090.93 772.075 1168.58 841.332 1231.94 917.081 1280.4 996.273 1314.16 1076.39 1333.99 1155.4 1341 1231.74 1336.36 1304.21 1321.38 1371.89 1297.19 1434.11 1265.03 1490.34 1225.91 1540.21 1180.88 1583.45 1130.85 1619.85 1076.7 1649.26 1019.22 1671.59 959.195 1686.74 897.351 1694.68 834.404 1695.4 771.046 1688.87 707.964 1675.16 645.852 1654.23 585.415 1626.22 527.385 1591.19 472.515 1549.3 421.606 1500.72 375.523 1445.73 335.184 1384.67 301.548 1318.04 275.719 1246.48 258.795 1170.84 252 1092.26 256.6 1012.24 273.777 932.692 304.671 856.044 350.126 785.238 410.531 723.65 485.408 674.871 573.244 642.249 671.211 628.325 775.207 634.265 880.251 659.567 981.217 702.19 1073.58 759.045 1153.96 826.566 1220.3 901.248 1271.78 979.96 1308.5 1060.07 1331.08 1139.44 1340.62 1216.44 1338.26 1289.78 1325.3 1358.5 1302.89 1421.88 1272.29 1479.36 1234.52 1530.59 1190.63 1575.2 1141.56 1613.03 1088.19 1643.89 1031.34 1667.7 971.787 1684.34 910.272 1693.8 847.504 1696 784.181 1690.99 720.992 1678.76 658.632 1659.33 597.793 1632.83 539.201 1599.24 483.614 1558.8 431.816 1511.63 384.652 1457.96 343.034 1398.16 307.92 1332.68 280.319 1262.11 261.412 1187.26 252.38 1109.22 254.448 1029.37 268.84 949.555 296.695 872.07 338.982 799.751 396.18 735.89 468.015 684.057 553.237 647.7 649.315 629.583 752.396 631.211 857.646 652.438 959.902 691.536 1054.46 745.586 1137.65 811.09 1207.17 884.494 1261.91 962.573 1301.79 1042.57 1327.41 1122.26 1339.65 1199.89 1339.82 1274.12 1329.06 1343.92 1308.63 1408.53 1279.72 1467.34 1243.42" stroke="#FFFF00" stroke-width="2.45948" stroke-linejoin="round" stroke-miterlimit="10" fill="none" fill-rule="evenodd"/><path d="M1790 412.001 1790 207 1402 207 1402 412.001Z" stroke="#FFFFFF" stroke-width="2.45948" stroke-linecap="square" stroke-miterlimit="8" fill="#262626" fill-rule="evenodd" fill-opacity="0.85098"/><text fill="#FFFFFF" font-family="Arial,Arial_MSFontService,sans-serif" font-weight="400" font-size="62" transform="matrix(1 0 0 1 1608.89 264)">Body1</text><path d="M1501.38 243.028C1501.38 245.79 1497.8 248.028 1493.38 248.028 1488.96 248.028 1485.38 245.79 1485.38 243.028 1485.38 240.267 1488.96 238.028 1493.38 238.028 1497.8 238.028 1501.38 240.267 1501.38 243.028Z" fill="#0000FF" fill-rule="evenodd"/><text fill="#FFFFFF" font-family="Arial,Arial_MSFontService,sans-serif" font-weight="400" font-size="62" transform="matrix(1 0 0 1 1608.89 324)">Body2</text><path d="M1415 301 1581 301" stroke="#FF0000" stroke-width="2.45948" stroke-linejoin="round" stroke-miterlimit="10" fill="none" fill-rule="evenodd"/><text fill="#FFFFFF" font-family="Arial,Arial_MSFontService,sans-serif" font-weight="400" font-size="62" transform="matrix(1 0 0 1 1608.89 382)">Body3</text><path d="M1415 359 1581 359" stroke="#FFFF00" stroke-width="2.45948" stroke-linejoin="round" stroke-miterlimit="10" fill="none" fill-rule="evenodd"/></g></svg>